{
	"asset":{
		"generator":"Khronos glTF Blender I/O v4.3.47",
		"version":"2.0"
	},
	"extensionsUsed":[
		"KHR_texture_transform"
	],
	"extensionsRequired":[
		"KHR_texture_transform"
	],
	"scene":0,
	"scenes":[
		{
			"name":"Scene",
			"nodes":[
				0
			]
		}
	],
	"nodes":[
		{
			"mesh":0,
			"name":"NurbsPath.001",
			"rotation":[
				0,
				0,
				-0.7071068286895752,
				0.7071068286895752
			],
			"scale":[
				0.052445992827415466,
				0.052445992827415466,
				0.052445992827415466
			],
			"translation":[
				0,
				0.8892340064048767,
				0.0377478152513504
			]
		}
	],
	"materials":[
		{
			"doubleSided":true,
			"name":"intestin",
			"normalTexture":{
				"extensions":{
					"KHR_texture_transform":{
						"offset":[
							0,
							-5
						],
						"scale":[
							6,
							6
						]
					}
				},
				"index":0,
				"scale":0.20000000298023224
			},
			"pbrMetallicRoughness":{
				"baseColorTexture":{
					"extensions":{
						"KHR_texture_transform":{
							"offset":[
								0,
								-5
							],
							"scale":[
								6,
								6
							]
						}
					},
					"index":1
				},
				"metallicFactor":0,
				"metallicRoughnessTexture":{
					"extensions":{
						"KHR_texture_transform":{
							"offset":[
								0,
								-5
							],
							"scale":[
								6,
								6
							]
						}
					},
					"index":2
				}
			}
		}
	],
	"meshes":[
		{
			"name":"NurbsPath.001",
			"primitives":[
				{
					"attributes":{
						"POSITION":0,
						"NORMAL":1,
						"TEXCOORD_0":2
					},
					"indices":3,
					"material":0
				}
			]
		}
	],
	"textures":[
		{
			"sampler":0,
			"source":0
		},
		{
			"sampler":0,
			"source":1
		},
		{
			"sampler":0,
			"source":2
		}
	],
	"images":[
		{
			"bufferView":4,
			"mimeType":"image/jpeg",
			"name":"NormalMap"
		},
		{
			"bufferView":5,
			"mimeType":"image/jpeg",
			"name":"OIP-6tIAI_zyT-transformed"
		},
		{
			"bufferView":6,
			"mimeType":"image/jpeg",
			"name":"Sans titre-3"
		}
	],
	"accessors":[
		{
			"bufferView":0,
			"componentType":5126,
			"count":3027,
			"max":[
				1.8744306564331055,
				2.506263017654419,
				1.4029388427734375
			],
			"min":[
				-4.610803127288818,
				-2.3953871726989746,
				-1.8372118473052979
			],
			"type":"VEC3"
		},
		{
			"bufferView":1,
			"componentType":5126,
			"count":3027,
			"type":"VEC3"
		},
		{
			"bufferView":2,
			"componentType":5126,
			"count":3027,
			"type":"VEC2"
		},
		{
			"bufferView":3,
			"componentType":5123,
			"count":16620,
			"type":"SCALAR"
		}
	],
	"bufferViews":[
		{
			"buffer":0,
			"byteLength":36324,
			"byteOffset":0,
			"target":34962
		},
		{
			"buffer":0,
			"byteLength":36324,
			"byteOffset":36324,
			"target":34962
		},
		{
			"buffer":0,
			"byteLength":24216,
			"byteOffset":72648,
			"target":34962
		},
		{
			"buffer":0,
			"byteLength":33240,
			"byteOffset":96864,
			"target":34963
		},
		{
			"buffer":0,
			"byteLength":383314,
			"byteOffset":130104
		},
		{
			"buffer":0,
			"byteLength":553088,
			"byteOffset":513420
		},
		{
			"buffer":0,
			"byteLength":159936,
			"byteOffset":1066508
		}
	],
	"samplers":[
		{
			"magFilter":9729,
			"minFilter":9987
		}
	],
	"buffers":[
		{
			"byteLength":1226444,
			"uri":"data:application/octet-stream;base64,"
		}
	]
}
